<svg xmlns="http://www.w3.org/2000/svg" viewBox="0 0 100 120" width="100" height="120">
  <defs>
    <linearGradient id="grad" x1="0%" y1="0%" x2="100%" y2="100%">
      <stop offset="0%" style="stop-color:#8B5CF6"/>
      <stop offset="100%" style="stop-color:#6366F1"/>
    </linearGradient>
  </defs>
  <!-- Speech bubble with megaphone -->
  <path d="M50 10 C25 10 10 30 10 50 C10 65 20 78 35 82 L35 100 L50 85 C75 85 90 70 90 50 C90 30 75 10 50 10 Z" fill="url(#grad)"/>
  <!-- Sound waves -->
  <path d="M55 35 Q65 50 55 65" stroke="#fff" stroke-width="3" fill="none" stroke-linecap="round"/>
  <path d="M65 30 Q80 50 65 70" stroke="#fff" stroke-width="3" fill="none" stroke-linecap="round" opacity="0.7"/>
  <path d="M75 25 Q95 50 75 75" stroke="#fff" stroke-width="3" fill="none" stroke-linecap="round" opacity="0.4"/>
  <!-- Megaphone base -->
  <circle cx="40" cy="50" r="12" fill="#fff"/>
  <rect x="28" y="44" width="15" height="12" fill="#fff"/>
</svg>
